<mxfile host="Electron" agent="Mozilla/5.0 (Windows NT 10.0; Win64; x64) AppleWebKit/537.36 (KHTML, like Gecko) draw.io/26.0.9 Chrome/128.0.6613.186 Electron/32.2.5 Safari/537.36" version="26.0.9">
  <diagram name="page-0" id="M0Y7M-I9TYUU3OVBZVRP">
    <mxGraphModel dx="566" dy="375" grid="1" gridSize="10" guides="1" tooltips="1" connect="1" arrows="1" fold="1" page="1" pageScale="1" pageWidth="1169" pageHeight="827" math="0" shadow="0">
      <root>
        <mxCell id="0" />
        <mxCell id="1" parent="0" />
        <mxCell id="GgbTWyMebxq1dnrlBztT-1" value="Git Repository" style="rounded=0;whiteSpace=wrap;html=1;" vertex="1" parent="1">
          <mxGeometry x="160" y="240" width="120" height="60" as="geometry" />
        </mxCell>
        <mxCell id="GgbTWyMebxq1dnrlBztT-2" value="Kubernetes" style="rounded=0;whiteSpace=wrap;html=1;" vertex="1" parent="1">
          <mxGeometry x="480" y="240" width="120" height="60" as="geometry" />
        </mxCell>
        <mxCell id="GgbTWyMebxq1dnrlBztT-3" value="Argo CD" style="rounded=0;whiteSpace=wrap;html=1;fillColor=#f8cecc;strokeColor=#b85450;" vertex="1" parent="1">
          <mxGeometry x="320" y="360" width="120" height="60" as="geometry" />
        </mxCell>
        <mxCell id="GgbTWyMebxq1dnrlBztT-4" value="" style="endArrow=classic;html=1;rounded=0;" edge="1" parent="1" source="GgbTWyMebxq1dnrlBztT-1" target="GgbTWyMebxq1dnrlBztT-3">
          <mxGeometry relative="1" as="geometry">
            <mxPoint x="330" y="330" as="sourcePoint" />
            <mxPoint x="430" y="330" as="targetPoint" />
          </mxGeometry>
        </mxCell>
        <mxCell id="GgbTWyMebxq1dnrlBztT-5" value="주기적으로&lt;div&gt;manifest 갱신&lt;/div&gt;" style="edgeLabel;resizable=0;html=1;;align=center;verticalAlign=middle;" connectable="0" vertex="1" parent="GgbTWyMebxq1dnrlBztT-4">
          <mxGeometry relative="1" as="geometry">
            <mxPoint x="-50" y="10" as="offset" />
          </mxGeometry>
        </mxCell>
        <mxCell id="GgbTWyMebxq1dnrlBztT-6" value="" style="endArrow=classic;html=1;rounded=0;" edge="1" parent="1" source="GgbTWyMebxq1dnrlBztT-3" target="GgbTWyMebxq1dnrlBztT-2">
          <mxGeometry relative="1" as="geometry">
            <mxPoint x="460" y="320" as="sourcePoint" />
            <mxPoint x="540" y="380" as="targetPoint" />
          </mxGeometry>
        </mxCell>
        <mxCell id="GgbTWyMebxq1dnrlBztT-7" value="비교 및&lt;div&gt;동기화&lt;/div&gt;" style="edgeLabel;resizable=0;html=1;;align=center;verticalAlign=middle;" connectable="0" vertex="1" parent="GgbTWyMebxq1dnrlBztT-6">
          <mxGeometry relative="1" as="geometry">
            <mxPoint x="50" y="10" as="offset" />
          </mxGeometry>
        </mxCell>
      </root>
    </mxGraphModel>
  </diagram>
</mxfile>
